#Comment line ignore any data following # character 
#Hierarchical Translation and Rotation (.htr) file 
[Header]	
#Header keywords are followed by a single value 
FileType HTR		#Single word string
DataType HTRS		#Translation followed by rotation and scale data
FileVersion 1		#integer
NumSegments 64		#integer
NumFrames 3		#integer
DataFrameRate 30		#integer, data frame rate in this file
EulerRotationOrder ZYX
CalibrationUnits mm
RotationUnits Degrees
GlobalAxisofGravity Y
BoneLengthAxis Y
ScaleFactor 1.00
[SegmentNames&Hierarchy]
#CHILD	PARENT
Pinger_Root GLOBAL
Pelvis Pinger_Root
L_Hip Pelvis
R_Hip Pelvis
Rear_Leg01 Pelvis
Spine1 Pelvis
L_Leg01 L_Hip
L_Leg02 L_Leg01
L_Leg03 L_Leg02
L_Foot L_Leg03
L_Toe1_01 L_Foot
L_Toe2_01 L_Foot
L_Toe3_01 L_Foot
planeAlignerLeft L_Foot
L_Toe1_02 L_Toe1_01
L_Toe1_03 L_Toe1_02
L_Toe2_02 L_Toe2_01
L_Toe2_03 L_Toe2_02
L_Toe3_02 L_Toe3_01
L_Toe3_03 L_Toe3_02
planeLockWeightLeft planeAlignerLeft
R_Leg01 R_Hip
R_Leg02 R_Leg01
R_Leg03 R_Leg02
R_Foot R_Leg03
planeAlignerRight R_Foot
R_Toe1_01 R_Foot
R_Toe2_01 R_Foot
R_Toe3_01 R_Foot
planeLockWeightRight planeAlignerRight
R_Toe1_02 R_Toe1_01
R_Toe1_03 R_Toe1_02
R_Toe2_02 R_Toe2_01
R_Toe2_03 R_Toe2_02
R_Toe3_02 R_Toe3_01
R_Toe3_03 R_Toe3_02
Rear_Leg02 Rear_Leg01
Rear_Leg03 Rear_Leg02
Rear_Leg04 Rear_Leg03
Rear_Foot Rear_Leg04
planeAlignerCenter Rear_Foot
Rear_Toe1_01 Rear_Foot
Rear_Toe2_01 Rear_Foot
Rear_Toe3_01 Rear_Foot
planeLockWeightCenter planeAlignerCenter
Rear_Toe1_02 Rear_Toe1_01
Rear_Toe1_03 Rear_Toe1_02
Rear_Toe2_02 Rear_Toe2_01
Rear_Toe2_03 Rear_Toe2_02
Rear_Toe3_02 Rear_Toe3_01
Rear_Toe3_03 Rear_Toe3_02
Back_Bone Spine1
Head Spine1
Motor_Bone Back_Bone
Ping_Mechanism Back_Bone
BN_LookIK Head
bottomMouth Head
L_Mouth01 Head
L_mouthFront Head
mouthGun Head
R_Mouth01 Head
R_mouthFront Head
TopMouth Head
weapon_bone Head
[BasePosition]
#SegmentName Tx, Ty, Tz, Rx, Ry, Rz, BoneLength
Pinger_Root 0.000000 0.000000 0.000000 -90.000000 0.000000 0.000000 10.000000 
Pelvis 0.000000 0.000000 0.000000 0.000000 0.000000 0.000000 10.000000 
L_Hip 0.000000 0.000000 0.000000 0.000000 0.000000 0.000000 10.000000 
R_Hip 0.000000 0.000000 0.000000 0.000000 0.000000 0.000000 10.000000 
Rear_Leg01 0.000000 0.000000 0.000000 0.000000 0.000000 0.000000 10.000000 
Spine1 0.000000 0.000000 0.000000 0.000000 0.000000 0.000000 10.000000 
L_Leg01 0.000000 0.000000 0.000000 0.000000 0.000000 0.000000 10.000000 
L_Leg02 0.000000 0.000000 0.000000 0.000000 0.000000 0.000000 10.000000 
L_Leg03 0.000000 0.000000 0.000000 0.000000 0.000000 0.000000 10.000000 
L_Foot 0.000000 0.000000 0.000000 0.000000 0.000000 0.000000 10.000000 
L_Toe1_01 0.000000 0.000000 0.000000 0.000000 0.000000 0.000000 10.000000 
L_Toe2_01 0.000000 0.000000 0.000000 0.000000 0.000000 0.000000 10.000000 
L_Toe3_01 0.000000 0.000000 0.000000 0.000000 0.000000 0.000000 10.000000 
planeAlignerLeft 0.000000 0.000000 0.000000 0.000000 0.000000 0.000000 10.000000 
L_Toe1_02 0.000000 0.000000 0.000000 0.000000 0.000000 0.000000 10.000000 
L_Toe1_03 0.000000 0.000000 0.000000 0.000000 0.000000 0.000000 10.000000 
L_Toe2_02 0.000000 0.000000 0.000000 0.000000 0.000000 0.000000 10.000000 
L_Toe2_03 0.000000 0.000000 0.000000 0.000000 0.000000 0.000000 10.000000 
L_Toe3_02 0.000000 0.000000 0.000000 0.000000 0.000000 0.000000 10.000000 
L_Toe3_03 0.000000 0.000000 0.000000 0.000000 0.000000 0.000000 10.000000 
planeLockWeightLeft 0.000000 0.000000 0.000000 0.000000 0.000000 0.000000 10.000000 
R_Leg01 0.000000 0.000000 0.000000 0.000000 0.000000 0.000000 10.000000 
R_Leg02 0.000000 0.000000 0.000000 0.000000 0.000000 0.000000 10.000000 
R_Leg03 0.000000 0.000000 0.000000 0.000000 0.000000 0.000000 10.000000 
R_Foot 0.000000 0.000000 0.000000 0.000000 0.000000 0.000000 10.000000 
planeAlignerRight 0.000000 0.000000 0.000000 0.000000 0.000000 0.000000 10.000000 
R_Toe1_01 0.000000 0.000000 0.000000 0.000000 0.000000 0.000000 10.000000 
R_Toe2_01 0.000000 0.000000 0.000000 0.000000 0.000000 0.000000 10.000000 
R_Toe3_01 0.000000 0.000000 0.000000 0.000000 0.000000 0.000000 10.000000 
planeLockWeightRight 0.000000 0.000000 0.000000 0.000000 0.000000 0.000000 10.000000 
R_Toe1_02 0.000000 0.000000 0.000000 0.000000 0.000000 0.000000 10.000000 
R_Toe1_03 0.000000 0.000000 0.000000 0.000000 0.000000 0.000000 10.000000 
R_Toe2_02 0.000000 0.000000 0.000000 0.000000 0.000000 0.000000 10.000000 
R_Toe2_03 0.000000 0.000000 0.000000 0.000000 0.000000 0.000000 10.000000 
R_Toe3_02 0.000000 0.000000 0.000000 0.000000 0.000000 0.000000 10.000000 
R_Toe3_03 0.000000 0.000000 0.000000 0.000000 0.000000 0.000000 10.000000 
Rear_Leg02 0.000000 0.000000 0.000000 0.000000 0.000000 0.000000 10.000000 
Rear_Leg03 0.000000 0.000000 0.000000 0.000000 0.000000 0.000000 10.000000 
Rear_Leg04 0.000000 0.000000 0.000000 0.000000 0.000000 0.000000 10.000000 
Rear_Foot 0.000000 0.000000 0.000000 0.000000 0.000000 0.000000 10.000000 
planeAlignerCenter 0.000000 0.000000 0.000000 0.000000 0.000000 0.000000 10.000000 
Rear_Toe1_01 0.000000 0.000000 0.000000 0.000000 0.000000 0.000000 10.000000 
Rear_Toe2_01 0.000000 0.000000 0.000000 0.000000 0.000000 0.000000 10.000000 
Rear_Toe3_01 0.000000 0.000000 0.000000 0.000000 0.000000 0.000000 10.000000 
planeLockWeightCenter 0.000000 0.000000 0.000000 0.000000 0.000000 0.000000 10.000000 
Rear_Toe1_02 0.000000 0.000000 0.000000 0.000000 0.000000 0.000000 10.000000 
Rear_Toe1_03 0.000000 0.000000 0.000000 0.000000 0.000000 0.000000 10.000000 
Rear_Toe2_02 0.000000 0.000000 0.000000 0.000000 0.000000 0.000000 10.000000 
Rear_Toe2_03 0.000000 0.000000 0.000000 0.000000 0.000000 0.000000 10.000000 
Rear_Toe3_02 0.000000 0.000000 0.000000 0.000000 0.000000 0.000000 10.000000 
Rear_Toe3_03 0.000000 0.000000 0.000000 0.000000 0.000000 0.000000 10.000000 
Back_Bone 0.000000 0.000000 0.000000 0.000000 0.000000 0.000000 10.000000 
Head 0.000000 0.000000 0.000000 0.000000 0.000000 0.000000 10.000000 
Motor_Bone 0.000000 0.000000 0.000000 0.000000 0.000000 0.000000 10.000000 
Ping_Mechanism 0.000000 0.000000 0.000000 0.000000 0.000000 0.000000 10.000000 
BN_LookIK 0.000000 0.000000 0.000000 0.000000 0.000000 0.000000 10.000000 
bottomMouth 0.000000 0.000000 0.000000 0.000000 0.000000 0.000000 10.000000 
L_Mouth01 0.000000 0.000000 0.000000 0.000000 0.000000 0.000000 10.000000 
L_mouthFront 0.000000 0.000000 0.000000 0.000000 0.000000 0.000000 10.000000 
mouthGun 0.000000 0.000000 0.000000 0.000000 0.000000 0.000000 10.000000 
R_Mouth01 0.000000 0.000000 0.000000 0.000000 0.000000 0.000000 10.000000 
R_mouthFront 0.000000 0.000000 0.000000 0.000000 0.000000 0.000000 10.000000 
TopMouth 0.000000 0.000000 0.000000 0.000000 0.000000 0.000000 10.000000 
weapon_bone 0.000000 0.000000 0.000000 0.000000 0.000000 0.000000 10.000000 
#Beginning of Data. Separated by tabs
#Fr	Tx	Ty	Tz	Rx	Ry	Rz	SF
[Pinger_Root]
4 -388.888885 0.000000 0.000000 -0.000075 -0.000000 -0.000020 388.888885
5 -518.518494 0.000000 0.000000 -0.000075 -0.000000 -0.000020 518.518494
6 -648.148254 0.000000 0.000000 -0.000075 -0.000000 -0.000020 648.148254
[Pelvis]
4 -857.174133 -66.011917 5150.445801 -133.401962 -86.987404 169.607468 5221.704590
5 -861.784180 -132.691177 5180.210449 120.779968 -86.610138 -84.330566 5253.081055
6 -863.205261 -190.069229 5208.049316 99.925499 -82.757843 -63.164833 5282.520996
[L_Hip]
4 5.766392 125.831482 872.656799 -178.250168 -81.786369 87.376007 881.701050
5 5.766392 125.831482 872.656799 -178.250168 -81.786369 87.376007 881.701050
6 5.766392 125.831482 872.656799 -178.250168 -81.786369 87.376007 881.701050
[R_Hip]
4 5.765438 125.836372 -872.654907 -1.748770 81.786041 87.376961 881.699829
5 5.765438 125.836372 -872.654907 -1.748770 81.786041 87.376961 881.699829
6 5.765438 125.836372 -872.654907 -1.748770 81.786041 87.376961 881.699829
[Rear_Leg01]
4 -192.298416 -925.602966 -0.001907 177.192917 20.411877 -159.953735 945.367432
5 -192.298416 -925.602966 -0.001907 176.606033 16.412567 -160.529480 945.367432
6 -192.298416 -925.602966 -0.001907 174.159058 12.177686 -163.781631 945.367432
[Spine1]
4 290.604584 5.007505 0.000477 -20.395149 14.362423 25.319382 290.647736
5 290.604584 5.007505 0.000477 -20.265341 14.186600 30.723072 290.647736
6 290.604584 5.007505 0.000477 -20.256174 13.972075 35.277187 290.647736
[L_Leg01]
4 761.932007 -0.002384 -0.069261 63.976402 1.910297 -75.921478 761.932068
5 761.932007 -0.002384 -0.069261 65.113731 3.399963 -77.392273 761.932068
6 761.932007 -0.002384 -0.069261 65.873001 4.754118 -79.109291 761.932068
[L_Leg02]
4 1441.140503 -0.000954 -0.000715 -1.390800 0.717723 -91.478554 1441.140503
5 1441.140503 -0.000954 -0.000715 -1.329240 0.780939 -93.050430 1441.140503
6 1441.140503 -0.000954 -0.000715 -1.268539 0.835892 -93.615341 1441.140503
[L_Leg03]
4 1686.963989 -0.000715 -0.000954 0.072299 -0.013941 89.927773 1686.963989
5 1686.963989 -0.000715 -0.000954 0.088544 -0.012844 86.234596 1686.963989
6 1686.963989 -0.000715 -0.000954 0.104683 -0.010702 82.541420 1686.963989
[L_Foot]
4 3041.570068 -30.715107 11.297464 -14.129373 16.045248 85.058205 3041.746094
5 3041.570068 -30.715107 11.297464 -12.113708 16.046028 88.064865 3041.746094
6 3041.570068 -30.715107 11.297464 -10.281547 16.094967 90.658005 3041.746094
[L_Toe1_01]
4 -188.216690 -224.732346 -21.137953 89.671196 -3.259411 -165.127655 293.899567
5 -188.216690 -224.732346 -21.137953 89.611824 -3.023096 -164.838074 293.899567
6 -188.216690 -224.732346 -21.137953 89.553665 -2.786481 -164.548782 293.899567
[L_Toe2_01]
4 200.746536 -219.926590 148.838394 -77.527504 -14.312325 -44.525112 332.896027
5 200.746536 -219.926590 148.838394 -77.572227 -14.171758 -44.493801 332.896027
6 200.746536 -219.926590 148.838394 -77.616852 -14.031174 -44.462635 332.896027
[L_Toe3_01]
4 188.832520 -219.859131 -191.078659 -105.214287 14.737993 -45.311977 347.140900
5 188.832520 -219.859131 -191.078659 -105.294487 14.933207 -45.428192 347.140900
6 188.832520 -219.859131 -191.078659 -105.426964 15.314768 -45.598030 347.140900
[planeAlignerLeft]
4 -9.943085 -610.426392 26.488647 0.000000 -90.000000 -90.001900 611.081726
5 -16.008194 -611.709106 21.958374 0.000000 -90.000000 -90.001900 612.312378
6 -22.073307 -612.991882 17.428099 0.000000 -90.000000 -90.001900 613.636719
[L_Toe1_02]
4 413.761139 0.000477 0.000000 0.001412 -22.411362 0.001412 413.761139
5 413.761139 0.000477 0.000000 0.001410 -22.631678 0.001410 413.761139
6 413.761139 0.000477 0.000000 0.001409 -22.851999 0.001409 413.761139
[L_Toe1_03]
4 464.317322 0.000358 -0.000089 0.015118 81.095085 0.015118 464.317322
5 464.317322 0.000358 -0.000089 0.013734 80.195107 0.013734 464.317322
6 464.317322 0.000358 -0.000089 0.012582 79.295036 0.012582 464.317322
[L_Toe2_02]
4 342.235809 -0.000477 0.000238 0.001180 -77.623657 0.001180 342.235809
5 342.235809 -0.000477 0.000238 0.001180 -77.785294 0.001180 342.235809
6 342.235809 -0.000477 0.000238 0.001180 -77.946854 0.001180 342.235809
[L_Toe2_03]
4 420.210846 -0.000715 0.000000 -179.996414 77.651848 -179.992905 420.210846
5 420.210846 -0.000715 0.000000 -179.996689 76.978912 -179.993179 420.210846
6 420.210846 -0.000715 0.000000 -179.997040 76.000107 -179.993515 420.210846
[L_Toe3_02]
4 329.270111 0.000954 0.000000 0.001177 -81.831505 0.001177 329.270111
5 329.270111 0.000954 0.000000 0.001177 -81.815132 0.001177 329.270111
6 329.270111 0.000954 0.000000 0.001177 -81.869476 0.001177 329.270111
[L_Toe3_03]
4 439.137451 -0.001907 0.000954 -179.997833 73.186462 -179.994293 439.137451
5 439.137451 -0.001907 0.000954 -179.997925 72.787086 -179.994400 439.137451
6 439.137451 -0.001907 0.000954 -179.998016 72.387741 -179.994476 439.137451
[planeLockWeightLeft]
4 999.998718 0.098029 0.076372 -0.011826 -0.004376 0.005620 999.998779
5 999.998718 0.098026 0.076364 -0.011826 -0.004376 0.005620 999.998779
6 999.998779 0.098023 0.076355 -0.011826 -0.004376 0.005620 999.998840
[R_Leg01]
4 761.455627 -0.001907 -0.000358 90.144852 -22.788418 67.749573 761.455688
5 761.455627 -0.001907 -0.000358 87.583069 -14.751838 67.413376 761.455688
6 761.455627 -0.001907 -0.000358 85.303902 -7.566228 66.465836 761.455688
[R_Leg02]
4 1441.140625 0.000000 -0.000238 0.191443 -0.007548 -88.748222 1441.140625
5 1441.140625 0.000000 -0.000238 0.197921 0.005488 -83.926758 1441.140625
6 1441.140625 0.000000 -0.000238 0.205457 0.017911 -79.113815 1441.140625
[R_Leg03]
4 1686.963989 0.000954 0.001431 -0.074656 0.013626 89.446487 1686.963989
5 1686.963989 0.000954 0.001431 -0.080982 0.013427 87.961540 1686.963989
6 1686.963989 0.000954 0.001431 -0.087302 0.013065 86.476105 1686.963989
[R_Foot]
4 3041.560059 -30.531288 -11.204481 26.625858 -22.713881 57.467922 3041.734131
5 3041.560059 -30.531288 -11.204481 28.298515 -22.995308 56.690155 3041.734131
6 3041.560059 -30.531288 -11.204481 29.978233 -23.255594 55.902351 3041.734131
[planeAlignerRight]
4 -5.968780 -736.930725 6.008758 0.000000 -89.960434 -90.005180 736.979431
5 -10.945052 -765.077942 9.457397 0.000000 -89.960434 -90.005180 765.214661
6 -15.921329 -793.225220 12.906038 0.000000 -89.960434 -90.005180 793.489929
[R_Toe1_01]
4 -188.383347 -224.864899 21.052242 90.905952 1.577890 -155.395493 294.101532
5 -188.383347 -224.864899 21.052242 90.993011 1.373993 -152.835876 294.101532
6 -188.383347 -224.864899 21.052242 91.070885 1.166311 -150.275482 294.101532
[R_Toe2_01]
4 200.637817 -220.002121 -148.787384 -103.829910 10.284093 -53.638344 332.857574
5 200.637817 -220.002121 -148.787384 -104.131577 9.749609 -55.454922 332.857574
6 200.637817 -220.002121 -148.787384 -104.415489 9.205993 -57.265804 332.857574
[R_Toe3_01]
4 188.606735 -220.092957 191.126343 -71.764671 -13.393670 -55.735893 347.192566
5 188.606735 -220.092957 191.126343 -71.271858 -13.048820 -57.635761 347.192566
6 188.606735 -220.092957 191.126343 -70.791740 -12.688280 -59.529846 347.192566
[planeLockWeightRight]
4 999.999084 -0.000172 0.075926 -0.011823 -0.004379 -0.000027 999.999084
5 999.999023 -0.000229 0.075946 -0.011823 -0.004379 -0.000027 999.999023
6 999.999023 -0.000286 0.075966 -0.011823 -0.004379 -0.000027 999.999023
[R_Toe1_02]
4 413.762085 0.000477 -0.000119 0.001396 -24.380537 0.001396 413.762085
5 413.762085 0.000477 -0.000119 0.001393 -24.870541 0.001393 413.762085
6 413.762085 0.000477 -0.000119 0.001389 -25.360544 0.001389 413.762085
[R_Toe1_03]
4 464.317810 0.000000 0.001088 0.007229 71.312836 0.007229 464.317810
5 464.317810 0.000000 0.001088 0.006050 67.629555 0.006050 464.317810
6 464.317810 0.000000 0.001088 0.005067 63.172619 0.005067 464.317810
[R_Toe2_02]
4 342.234741 -0.000954 0.000238 -0.001463 -73.971779 -0.001463 342.234741
5 342.234741 -0.000954 0.000238 -0.000581 -73.144966 -0.000581 342.234741
6 342.234741 -0.000954 0.000238 0.000303 -72.318184 0.000303 342.234741
[R_Toe2_03]
4 420.210846 0.000715 -0.000268 0.000000 89.874886 -0.003496 420.210846
5 420.210846 0.000715 -0.000268 -0.027391 87.739464 -0.030888 420.210846
6 420.210846 0.000715 -0.000268 0.028070 85.207397 0.028070 420.210846
[R_Toe3_02]
4 329.270355 -0.000477 -0.000954 0.001180 -77.798424 0.001180 329.270355
5 329.270355 -0.000477 -0.000954 0.001181 -76.931419 0.001181 329.270355
6 329.270355 -0.000477 -0.000954 0.001182 -76.064392 0.001182 329.270355
[R_Toe3_03]
4 439.137939 0.000238 0.001431 -179.974579 87.576424 -179.971054 439.137939
5 439.137939 0.000238 0.001431 0.000000 89.891647 0.003496 439.137939
6 439.137939 0.000238 0.001431 -0.025379 87.212448 -0.021881 439.137939
[Rear_Leg02]
4 1162.777710 -0.029802 0.005960 28.543592 -7.573900 -117.665680 1162.777710
5 1162.777710 -0.029802 0.005960 27.988201 -3.008863 -126.788925 1162.777710
6 1162.777710 -0.029802 0.005960 26.561699 -0.635767 -134.113205 1162.777710
[Rear_Leg03]
4 607.192505 -0.013351 -0.073195 0.009885 -0.006200 80.543037 607.192505
5 607.192505 -0.013351 -0.073195 0.009849 -0.006257 81.205833 607.192505
6 607.192505 -0.013351 -0.073195 0.009841 -0.006270 81.355751 607.192505
[Rear_Leg04]
4 995.874512 -0.020504 -0.011921 -0.042137 -0.015311 105.880554 995.874573
5 995.874512 -0.020504 -0.011921 -0.042958 -0.012828 112.566757 995.874573
6 995.874512 -0.020504 -0.011921 -0.043344 -0.011456 116.209198 995.874573
[Rear_Foot]
4 3096.176270 -0.067472 -0.041425 -42.199684 47.027847 100.121979 3096.176270
5 3096.176270 -0.067472 -0.041425 -44.983200 50.327549 103.045128 3096.176270
6 3096.176270 -0.067472 -0.041425 -46.065838 53.745773 101.087074 3096.176270
[planeAlignerCenter]
4 5.586414 266.137085 -756.454773 0.000009 0.000003 -179.999985 801.925171
5 7.121325 280.472198 -758.555786 0.000009 0.000003 -179.999985 808.778259
6 8.656234 294.807281 -760.656738 0.000009 0.000003 -179.999985 815.833862
[Rear_Toe1_01]
4 0.653352 83.966492 -371.173737 0.094604 39.656525 90.041504 380.553192
5 0.653352 83.966492 -371.173737 0.091814 39.653740 90.041504 380.553192
6 0.653352 83.966492 -371.173737 0.087767 39.776474 90.040405 380.553192
[Rear_Toe2_01]
4 178.200760 -294.826019 -362.060547 98.850670 83.712471 28.245712 499.765686
5 178.200760 -294.826019 -362.060547 111.336334 82.579842 40.745670 499.765686
6 178.200760 -294.826019 -362.060547 118.954422 81.481476 48.348240 499.765686
[Rear_Toe3_01]
4 -153.359680 -308.780914 -362.060852 -96.434036 82.923965 151.969955 499.952881
5 -153.359680 -308.780914 -362.060852 -107.818535 81.802620 140.570572 499.952881
6 -153.359680 -308.780914 -362.060852 -115.006805 80.732903 133.395401 499.952881
[planeLockWeightCenter]
4 0.000224 0.000076 0.076370 -0.011814 -0.004373 -0.000015 0.076371
5 156.250153 0.000000 0.076447 -0.011814 -0.004373 -0.000015 156.250168
6 500.000244 0.000153 0.076218 -0.011814 -0.004373 -0.000015 500.000244
[Rear_Toe1_02]
4 379.707825 0.194073 0.000477 -0.000767 -33.624729 0.000838 379.707855
5 379.707825 0.194073 0.000477 -0.000767 -33.624729 0.000838 379.707855
6 379.707825 0.194073 0.000477 -0.000767 -33.624729 0.000838 379.707855
[Rear_Toe1_03]
4 500.129700 0.165701 0.000119 -0.031217 88.001198 -0.034716 500.129761
5 500.129700 0.165701 0.000119 -0.010551 84.644264 -0.014052 500.129761
6 500.129700 0.165701 0.000119 0.016454 81.819496 0.016454 500.129761
[Rear_Toe2_02]
4 340.494507 0.000238 -0.000954 179.998825 -87.157036 179.998825 340.494507
5 340.494507 0.000238 -0.000954 179.998825 -87.092155 179.998825 340.494507
6 340.494507 0.000238 -0.000954 179.998825 -87.027237 179.998825 340.494507
[Rear_Toe2_03]
4 433.103577 0.000000 0.000238 -179.996307 54.094261 -179.999985 433.103546
5 433.103577 0.000000 0.000238 -179.996323 53.586151 180.000000 433.103546
6 433.103577 0.000000 0.000238 -179.996338 53.475399 180.000000 433.103546
[Rear_Toe3_02]
4 340.494141 -0.000358 -0.000477 -179.994171 -87.207962 -179.994171 340.494171
5 340.494141 -0.000358 -0.000477 -179.994171 -87.144394 -179.994171 340.494171
6 340.494141 -0.000358 -0.000477 -179.994171 -87.080597 -179.994171 340.494171
[Rear_Toe3_03]
4 433.103577 0.001431 -0.000238 179.992493 54.402618 179.999832 433.103546
5 433.103577 0.001431 -0.000238 179.992538 53.918827 179.999878 433.103546
6 433.103577 0.001431 -0.000238 179.992554 53.821774 179.999893 433.103546
[Back_Bone]
4 1312.175781 -701.934692 0.000954 -3.212733 -0.037430 -84.636566 1488.125488
5 1312.175781 -701.934692 0.000954 -3.274355 -0.867710 -84.454651 1488.125488
6 1312.175781 -701.934692 0.000954 -3.338629 -1.697743 -84.271774 1488.125488
[Head]
4 1406.159424 809.709290 0.001431 -10.823556 7.573089 1.115498 1622.625488
5 1406.159424 809.709290 0.001431 -11.220114 7.391712 0.644174 1622.625488
6 1406.159424 809.709290 0.001431 -11.615006 7.207109 0.174306 1622.625488
[Motor_Bone]
4 1158.364380 -417.834747 0.000477 0.251855 -0.541808 -106.527908 1231.419434
5 1158.364380 -417.834747 0.000477 2.270587 -1.149517 -107.133400 1231.419434
6 1158.364380 -417.834747 0.000477 1.114804 -1.132542 -107.122055 1231.419434
[Ping_Mechanism]
4 1221.505981 -434.311218 -13.274384 0.000103 -0.000053 82.120995 1296.487305
5 1201.773071 -423.293427 -0.435181 0.000103 -0.000053 82.120995 1274.141235
6 1188.115479 -411.893311 11.907660 0.000103 -0.000053 82.120995 1257.543701
[BN_LookIK]
4 193.241119 1380.371704 -0.002861 0.000000 89.965736 -31.038179 1393.832153
5 193.241119 1380.371704 -0.002861 0.000000 89.965736 -31.038179 1393.832153
6 193.241119 1380.371704 -0.002861 0.000000 89.965736 -31.038179 1393.832153
[bottomMouth]
4 -435.092926 615.759399 -0.000954 -0.000022 0.000016 73.527184 753.966492
5 -435.092926 615.759399 -0.000954 -0.000022 0.000016 73.527184 753.966492
6 -435.092926 615.759399 -0.000954 -0.000022 0.000016 73.527184 753.966492
[L_Mouth01]
4 554.440979 7.658243 838.222046 150.204178 23.759130 109.605339 1005.027161
5 554.440979 7.658243 838.222046 150.204178 23.759130 109.605339 1005.027161
6 554.440979 7.658243 838.222046 150.204178 23.759130 109.605339 1005.027161
[L_mouthFront]
4 551.629089 934.514771 339.150421 0.000081 2.804060 79.119301 1136.941284
5 551.629089 934.514771 339.150421 0.000081 2.804060 79.119301 1136.941284
6 551.629089 934.514771 339.150421 0.000081 2.804060 79.119301 1136.941284
[mouthGun]
4 55.332661 1627.420898 0.000000 0.000023 0.000009 -11.038128 1628.361328
5 55.332661 1627.420898 0.000000 0.000023 0.000009 -11.038128 1628.361328
6 55.332661 1627.420898 0.000000 0.000023 0.000009 -11.038128 1628.361328
[R_Mouth01]
4 554.442383 7.659197 -838.223938 29.795891 -23.759109 109.605331 1005.029541
5 554.442383 7.659197 -838.223938 29.795891 -23.759109 109.605331 1005.029541
6 554.442383 7.659197 -838.223938 29.795891 -23.759109 109.605331 1005.029541
[R_mouthFront]
4 551.629089 934.514282 -339.151367 0.000029 -2.803930 79.119133 1136.941162
5 551.629089 934.514282 -339.151367 0.000029 -2.803930 79.119133 1136.941162
6 551.629089 934.514282 -339.151367 0.000029 -2.803930 79.119133 1136.941162
[TopMouth]
4 461.269867 -56.106091 -0.008583 -0.000059 -0.000268 92.025169 464.669525
5 461.269867 -56.106091 -0.008583 -0.000059 -0.000268 92.025169 464.669525
6 461.269867 -56.106091 -0.008583 -0.000059 -0.000268 92.025169 464.669525
[weapon_bone]
4 -987.239868 1448.372803 0.001431 0.000000 89.965736 -31.038221 1752.833740
5 -987.239868 1448.372803 0.001431 0.000000 89.965736 -31.038221 1752.833740
6 -987.239868 1448.372803 0.001431 0.000000 89.965736 -31.038221 1752.833740
